<svg fill="#ffffff" height="200px" width="200px" version="1.1" id="Layer_1" xmlns="http://www.w3.org/2000/svg" xmlns:xlink="http://www.w3.org/1999/xlink" viewBox="0 0 512 512" xml:space="preserve" stroke="#ffffff"><g id="SVGRepo_bgCarrier" stroke-width="0"></g><g id="SVGRepo_tracerCarrier" stroke-linecap="round" stroke-linejoin="round"></g><g id="SVGRepo_iconCarrier"> <g> <g> <path d="M189.256,398.225H34.973V104.214c0-4.823-3.91-8.733-8.733-8.733c-4.823,0-8.733,3.91-8.733,8.733v302.744 c0,4.823,3.91,8.733,8.733,8.733h163.016c4.823,0,8.733-3.91,8.733-8.733S194.079,398.225,189.256,398.225z"></path> </g> </g> <g> <g> <path d="M315.011,0H26.24c-4.823,0-8.733,3.91-8.733,8.733v66.371c0,4.824,3.91,8.733,8.733,8.733c4.823,0,8.733-3.91,8.733-8.733 V17.466h271.305v273.052c0,4.823,3.91,8.733,8.733,8.733s8.733-3.91,8.733-8.733V8.733C323.744,3.91,319.834,0,315.011,0z"></path> </g> </g> <g> <g> <path d="M170.626,109.454c-54.253,0-98.392,44.139-98.392,98.392c0,54.253,44.139,98.392,98.392,98.392 c54.253,0,98.392-44.139,98.392-98.392C269.017,153.593,224.878,109.454,170.626,109.454z M90.178,216.579h17.04 c1.171,21.008,6.553,40.675,15.487,56.427C104.915,259.889,92.669,239.677,90.178,216.579z M107.218,199.113h-17.04 c2.491-23.098,14.737-43.31,32.526-56.427C113.771,158.438,108.388,178.104,107.218,199.113z M161.892,287.236 c-19.432-6.823-34.923-35.807-37.172-70.657h37.172V287.236z M161.892,199.113H124.72c2.25-34.851,17.741-63.834,37.172-70.657 V199.113z M179.358,287.236v-70.657h37.172C214.281,251.429,198.789,280.412,179.358,287.236z M179.358,199.113v-70.657 c19.432,6.823,34.923,35.807,37.172,70.657H179.358z M251.073,199.113h-17.04c-1.171-21.008-6.553-40.675-15.487-56.427 C236.336,155.803,248.582,176.014,251.073,199.113z M218.548,273.005c8.932-15.752,14.315-35.419,15.487-56.427h17.04 C248.583,239.677,236.337,259.889,218.548,273.005z"></path> </g> </g> <g> <g> <path d="M221.859,62.878H119.392c-4.823,0-8.733,3.91-8.733,8.733s3.91,8.733,8.733,8.733h102.467c4.823,0,8.733-3.91,8.733-8.733 S226.682,62.878,221.859,62.878z"></path> </g> </g> <g> <g> <path d="M485.76,312.06h-71.775c-4.823,0-8.733,3.91-8.733,8.733s3.91,8.733,8.733,8.733h63.042v165.008H227.099V329.526h157.776 c4.823,0,8.733-3.91,8.733-8.733s-3.91-8.733-8.733-8.733H218.366c-4.823,0-8.733,3.91-8.733,8.733v182.474 c0,4.823,3.91,8.733,8.733,8.733H485.76c4.823,0,8.733-3.91,8.733-8.733V320.793C494.493,315.97,490.583,312.06,485.76,312.06z"></path> </g> </g> <g> <g> <path d="M322.927,427.917c11.079-8.169,18.283-21.305,18.283-36.096c0-24.719-20.11-44.829-44.829-44.829 s-44.829,20.11-44.829,44.829c0,14.791,7.204,27.927,18.283,36.096c-11.079,8.169-18.283,21.305-18.283,36.096 c0,4.823,3.91,8.733,8.733,8.733h72.193c4.823,0,8.733-3.91,8.733-8.733C341.21,449.222,334.006,436.087,322.927,427.917z M269.017,391.821c0-15.088,12.275-27.363,27.363-27.363s27.363,12.275,27.363,27.363s-12.275,27.363-27.363,27.363 S269.017,406.909,269.017,391.821z M270.446,455.281c3.653-10.82,13.898-18.63,25.935-18.63c12.036,0,22.282,7.811,25.935,18.63 H270.446z"></path> </g> </g> <g> <g> <path d="M454.739,356.307h-85.001c-4.823,0-8.733,3.91-8.733,8.733c0,4.823,3.91,8.733,8.733,8.733h85.001 c4.823,0,8.733-3.91,8.733-8.733C463.472,360.217,459.562,356.307,454.739,356.307z"></path> </g> </g> <g> <g> <path d="M454.739,389.298h-38.425c-4.823,0-8.733,3.91-8.733,8.733s3.91,8.733,8.733,8.733h38.425c4.823,0,8.733-3.91,8.733-8.733 S459.562,389.298,454.739,389.298z"></path> </g> </g> <g> <g> <path d="M387.204,389.298h-17.466c-4.823,0-8.733,3.91-8.733,8.733s3.91,8.733,8.733,8.733h17.466c4.823,0,8.733-3.91,8.733-8.733 S392.027,389.298,387.204,389.298z"></path> </g> </g> <g> <g> <path d="M454.739,455.281h-16.302c-4.823,0-8.733,3.91-8.733,8.733s3.91,8.733,8.733,8.733h16.302c4.823,0,8.733-3.91,8.733-8.733 S459.562,455.281,454.739,455.281z"></path> </g> </g> <g> <g> <path d="M409.328,455.281h-39.59c-4.823,0-8.733,3.91-8.733,8.733s3.91,8.733,8.733,8.733h39.59c4.823,0,8.733-3.91,8.733-8.733 S414.151,455.281,409.328,455.281z"></path> </g> </g> <g> <g> <path d="M454.739,422.29h-85.001c-4.823,0-8.733,3.91-8.733,8.733s3.91,8.733,8.733,8.733h85.001c4.823,0,8.733-3.91,8.733-8.733 S459.562,422.29,454.739,422.29z"></path> </g> </g> </g></svg>