<svg xmlns="http://www.w3.org/2000/svg" version="1.1" xmlns:xlink="http://www.w3.org/1999/xlink" xmlns:svgjs="http://svgjs.dev/svgjs" width="1500" height="1500" viewBox="0 0 1500 1500"><g transform="matrix(1,0,0,1,-0.3236151603499593,-0.3236151603499593)"><svg viewBox="0 0 343 343" data-background-color="#FFFFFF" preserveAspectRatio="xMidYMid meet" height="1500" width="1500" xmlns="http://www.w3.org/2000/svg" xmlns:xlink="http://www.w3.org/1999/xlink"><g id="tight-bounds" transform="matrix(1,0,0,1,0.07400000000001228,0.07400000000001228)"><svg viewBox="0 0 342.8515585177538 342.8515585177538" height="342.8515585177538" width="342.8515585177538"><g><svg></svg></g><g><svg viewBox="0 0 342.8515585177538 342.8515585177538" height="342.8515585177538" width="342.8515585177538"><g><path d="M0 171.426c0-94.676 76.75-171.426 171.426-171.426 94.676 0 171.426 76.75 171.426 171.426 0 94.676-76.75 171.426-171.426 171.426-94.676 0-171.426-76.75-171.426-171.426zM171.426 339.695c92.933 0 168.269-75.337 168.269-168.269 0-92.933-75.337-168.269-168.269-168.27-92.933 0-168.269 75.337-168.27 168.27 0 92.933 75.337 168.269 168.27 168.269z" data-fill-palette-color="tertiary" fill="#052560" stroke="transparent"></path><ellipse rx="164.56874808852183" ry="164.56874808852183" cx="171.4257792588769" cy="171.4257792588769" fill="#052560" stroke="transparent" stroke-width="0" fill-opacity="1" data-fill-palette-color="tertiary"></ellipse></g><g transform="matrix(1,0,0,1,64.84655864529836,101.42365686611285)"><svg viewBox="0 0 213.15844122715708 140.0042447855281" height="140.0042447855281" width="213.15844122715708"><g><svg viewBox="0 0 213.15844122715708 140.0042447855281" height="140.0042447855281" width="213.15844122715708"><g><svg viewBox="0 0 213.15844122715708 140.0042447855281" height="140.0042447855281" width="213.15844122715708"><g transform="matrix(1,0,0,1,0,105.00384859667368)"><svg viewBox="0 0 213.15844122715708 35.00039618885444" height="35.00039618885444" width="213.15844122715708"><g id="textblocktransform"><svg viewBox="0 0 213.15844122715708 35.00039618885444" height="35.00039618885444" width="213.15844122715708" id="textblock"><g><svg viewBox="0 0 213.15844122715708 35.00039618885444" height="35.00039618885444" width="213.15844122715708"><g transform="matrix(1,0,0,1,0,0)"><svg width="213.15844122715708" viewBox="1.3 -37.25 300.52 49.35" height="35.00039618885444" data-palette-color="#FFFFFF"><path d="M34.2-3.2L38.85-2.55 38.8 0 22.65 0 22.35-1.6Q23.8-2.55 26.6-3.65L26.6-3.65 26.6-14.2 13.15-14.2 13.15-3.2 17.75-2.55 17.7 0 1.6 0 1.3-1.6Q2.75-2.55 5.55-3.65L5.55-3.65 5.55-29.8 1.7-30.35 1.75-32.9 17.05-32.9 17.35-31.3Q15.5-30.2 13.15-29.25L13.15-29.25 13.15-18.5 26.6-18.5 26.6-29.8 22.75-30.35 22.8-32.9 38.15-32.9 38.45-31.3Q36.85-30.3 34.2-29.25L34.2-29.25 34.2-3.2ZM61.65-14.8L58.75-11.9 46-12.05Q46.2-8.35 48.3-6.3 50.4-4.25 53.65-4.25L53.65-4.25Q56.35-4.25 60.05-6.05L60.05-6.05 61.1-3.4 53.25 0.65 51.65 0.75Q46.15 0.75 42.6-2.73 39.05-6.2 39.05-11.55L39.05-11.55Q39.05-17.15 42.65-20.98 46.25-24.8 51.4-24.8L51.4-24.8Q55.9-24.8 58.77-22.03 61.65-19.25 61.65-14.8L61.65-14.8ZM49.65-21L49.65-21Q47.05-19.5 46.3-15.5L46.3-15.5 54.95-15.95Q54.6-18.1 53.12-19.55 51.65-21 49.65-21ZM88.35-4.65L88.8-2.4 82.7 0.8Q81.5 0.75 80.2-0.28 78.9-1.3 78.15-2.8L78.15-2.8 72.7 0.65 71.15 0.75Q68 0.75 65.95-1.1 63.9-2.95 63.9-5.55L63.9-5.55Q63.9-9.15 67.8-11.25L67.8-11.25 77.35-11.5 77.35-15.95Q77.35-19.95 75-21.05L75-21.05Q72.7-20.9 71.25-20.4L71.25-20.4 70.35-15 66.15-14.85Q65.05-17.6 65.05-20.9L65.05-20.9 65.1-21.9Q67.85-23.1 71.7-24.03 75.55-24.95 77.55-24.95L77.55-24.95Q79.4-24.95 81.17-23.95 82.95-22.95 84.05-21.35L84.05-21.35Q84.6-20.4 84.65-17.55L84.65-17.55 84.65-5.55Q84.65-4.35 85.9-4.35L85.9-4.35 88.35-4.65ZM72.2-3.7L72.2-3.7Q74.2-3.75 77.35-4.95L77.35-4.95 77.35-8.55 76.1-8.6Q71.15-8.6 71.15-5.9L71.15-5.9Q71.15-4.55 72.2-3.7ZM101.04-34.6L101.04-3.95Q103.39-3.2 104.69-2.45L104.69-2.45 104.49 0 90.14 0 89.99-1.7Q91.49-2.55 93.79-3.35L93.79-3.35 93.79-32.25 90.04-32.65 89.69-35.05Q93.99-36.7 98.59-36.8L98.59-36.8 101.04-34.6ZM139.59-12.75L135.79-11.95 135.79-3.45 125.14 1 123.64 1.05Q117.79 1.05 113.92-1.43 110.04-3.9 108.27-7.75 106.49-11.6 106.49-15.8L106.49-15.8Q106.49-20.55 108.62-24.7 110.74-28.85 114.87-31.38 118.99-33.9 124.74-33.9L124.74-33.9Q131.09-33.9 135.39-30.85L135.39-30.85 135.44-29.85Q135.44-26.3 134.34-22.35L134.34-22.35 129.79-22.35 128.59-27.95Q124.79-29.55 120.64-29.55L120.64-29.55 119.44-29.5Q116.84-27.65 115.54-24.25 114.24-20.85 114.24-16.8L114.24-16.8Q114.24-11.2 117.07-7.58 119.89-3.95 124.44-3.9L124.44-3.9Q126.09-3.85 128.79-4.3L128.79-4.3 128.79-11.2Q126.14-12.15 123.79-13.45L123.79-13.45 124.09-15.15 139.54-15.15 139.59-12.75ZM151.19-18.4L156.19-24Q157.39-24.45 158.69-24.45L158.69-24.45Q161.29-24.45 162.89-22.95L162.89-22.95Q162.64-17.45 161.04-13.5L161.04-13.5 157.24-13.5 156.24-19.1Q153.49-17.05 151.19-14.25L151.19-14.25 151.19-4.15Q154.69-3.45 156.59-2.45L156.59-2.45 156.39 0 140.39 0 140.24-1.7Q141.64-2.5 143.94-3.3L143.94-3.3 143.94-20.1 140.19-20.55 139.84-22.95Q144.14-24.6 148.74-24.7L148.74-24.7 151.19-22.5 151.19-18.4ZM171.54-27.9L171.54-27.9Q168.39-29.3 166.29-31.95L166.29-31.95Q167.94-35.25 170.59-37.25L170.59-37.25Q173.59-35.65 175.64-32.85L175.64-32.85Q174.24-29.85 171.54-27.9ZM174.79-22.5L174.79-3.95Q177.14-3.2 178.44-2.45L178.44-2.45 178.24 0 163.89 0 163.74-1.7Q165.24-2.55 167.54-3.35L167.54-3.35 167.54-20.1 163.79-20.55 163.44-22.95Q167.74-24.6 172.34-24.7L172.34-24.7 174.79-22.5ZM220.83-16.55L220.83-3.9Q223.28-3.15 224.33-2.45L224.33-2.45 224.13 0 210.93 0 210.78-1.7 213.58-3 213.58-14.45Q213.58-19.35 210.33-19.35L210.33-19.35Q208.73-19.35 205.88-17.75L205.88-17.75 205.93-3.85Q207.93-3.15 209.08-2.45L209.08-2.45 208.88 0 196.08 0 195.93-1.7 198.68-2.95 198.68-14.45Q198.68-19.35 195.43-19.35L195.43-19.35Q193.93-19.35 191.03-17.8L191.03-17.8 191.03-3.8Q192.78-3.25 194.08-2.45L194.08-2.45 193.88 0 180.28 0 180.13-1.7Q181.48-2.45 183.78-3.3L183.78-3.3 183.78-20.1 180.03-20.55 179.68-22.95Q183.98-24.6 188.58-24.7L188.58-24.7 191.03-22.3 191.03-20.2Q195.88-23.75 199.18-24.55L199.18-24.55Q200.78-24.45 202.56-23.55 204.33-22.65 205.28-21.05L205.28-21.05Q205.58-20.45 205.63-20L205.63-20Q210.68-23.7 214.08-24.55L214.08-24.55Q216.38-24.4 218.38-23 220.38-21.6 220.68-19.4L220.68-19.4 220.83-16.55ZM250.48-4.65L250.93-2.4 244.83 0.8Q243.63 0.75 242.33-0.28 241.03-1.3 240.28-2.8L240.28-2.8 234.83 0.65 233.28 0.75Q230.13 0.75 228.08-1.1 226.03-2.95 226.03-5.55L226.03-5.55Q226.03-9.15 229.93-11.25L229.93-11.25 239.48-11.5 239.48-15.95Q239.48-19.95 237.13-21.05L237.13-21.05Q234.83-20.9 233.38-20.4L233.38-20.4 232.48-15 228.28-14.85Q227.18-17.6 227.18-20.9L227.18-20.9 227.23-21.9Q229.98-23.1 233.83-24.03 237.68-24.95 239.68-24.95L239.68-24.95Q241.53-24.95 243.31-23.95 245.08-22.95 246.18-21.35L246.18-21.35Q246.73-20.4 246.78-17.55L246.78-17.55 246.78-5.55Q246.78-4.35 248.03-4.35L248.03-4.35 250.48-4.65ZM234.33-3.7L234.33-3.7Q236.33-3.75 239.48-4.95L239.48-4.95 239.48-8.55 238.23-8.6Q233.28-8.6 233.28-5.9L233.28-5.9Q233.28-4.55 234.33-3.7ZM277.43-27.75L278.68-21.3 277.58-21.35Q275.58-21.35 273.93-20.7L273.93-20.7Q275.33-18.75 275.33-16.35L275.33-16.35Q275.33-12.55 272.05-10.15 268.78-7.75 263.93-7.75L263.93-7.75 262.23-7.85 259.63-5.6Q263.58-5.55 268.38-4.67 273.18-3.8 276.83-2.6L276.83-2.6Q277.33-1.15 277.33 0.35L277.33 0.35Q277.33 5.1 272.83 8.6 268.33 12.1 262.28 12.1L262.28 12.1Q258.08 12.1 255.03 10.23 251.98 8.35 251.88 4.6L251.88 4.6 257.38-0.35 254.23-0.55 253.23-3.75Q255.83-6.6 258.83-8.55L258.83-8.55Q255.98-9.55 254.33-11.63 252.68-13.7 252.68-16.3L252.68-16.3Q252.68-20.05 255.95-22.55 259.23-25.05 264.08-25.05L264.08-25.05Q268.13-25.05 271.03-23.3L271.03-23.3Q272.73-27.35 277.43-27.75L277.43-27.75ZM266.28-11.35L266.28-11.35Q268.18-12.75 268.18-15.9L268.18-15.9Q268.18-18.15 266.83-19.85 265.48-21.55 263.38-21.55L263.38-21.55Q262.33-21.55 261.18-21.05L261.18-21.05Q259.78-19.65 259.78-16.5L259.78-16.5Q259.78-14.1 260.98-12.55 262.18-11 264.28-11L264.28-11Q265.08-11 266.28-11.35ZM263.28 6.5L263.28 6.5Q265.98 6.5 268.58 5.5 271.18 4.5 272.38 2.7L272.38 2.7Q267.88 0.8 260.38-0.05L260.38-0.05Q257.68 2 257.68 3.6L257.68 3.6Q257.68 4.95 259.25 5.73 260.83 6.5 263.28 6.5ZM301.82-14.8L298.92-11.9 286.17-12.05Q286.38-8.35 288.47-6.3 290.57-4.25 293.82-4.25L293.82-4.25Q296.52-4.25 300.22-6.05L300.22-6.05 301.27-3.4 293.42 0.65 291.82 0.75Q286.32 0.75 282.77-2.73 279.22-6.2 279.22-11.55L279.22-11.55Q279.22-17.15 282.82-20.98 286.42-24.8 291.57-24.8L291.57-24.8Q296.07-24.8 298.95-22.03 301.82-19.25 301.82-14.8L301.82-14.8ZM289.82-21L289.82-21Q287.22-19.5 286.47-15.5L286.47-15.5 295.13-15.95Q294.77-18.1 293.3-19.55 291.82-21 289.82-21Z" opacity="1" transform="matrix(1,0,0,1,0,0)" fill="#FFFFFF" class="wordmark-text-0" data-fill-palette-color="quaternary" id="text-0"></path></svg></g></svg></g></svg></g></svg></g><g transform="matrix(1,0,0,1,66.88101234565744,0)"><svg viewBox="0 0 79.3964165358422 96.74109506599368" height="96.74109506599368" width="79.3964165358422"><g><svg xmlns="http://www.w3.org/2000/svg" xmlns:xlink="http://www.w3.org/1999/xlink" version="1.1" x="0" y="0" viewBox="9.785750032812803 0.9998637884377313 80.42972461614805 98.00013621156226" enable-background="new 0 0 100 100" xml:space="preserve" height="96.74109506599368" width="79.3964165358422" class="icon-icon-0" data-fill-palette-color="quaternary" id="icon-0"><path fill="#FFFFFF" d="M29.511 3C29.683 3 29.838 3.015 29.969 3.042 30.636 3.205 32.376 4.89 33.311 5.795 35.156 7.581 36.374 8.76 37.826 8.76H37.887L37.926 8.759C38.822 8.724 39.66 8.361 40.471 8.01 41.011 7.777 41.611 7.517 42.076 7.437 42.017 8.168 41.563 9.473 40.825 10.144 39.226 11.597 39.416 13.33 39.792 14.536A2.1 2.1 0 0 0 39.059 14.402L37.926 14.413 37.338 15.352C36.721 16.338 37.164 17.248 37.429 17.792 37.698 18.345 38.199 19.373 38.046 20.158 37.49 23.011 40.606 24.244 42.468 24.981 42.665 25.059 42.898 25.151 43.126 25.246L43.046 25.342C42.267 26.273 41.298 27.43 41.48 28.941 41.552 29.538 41.843 30.402 42.823 31.122 42.892 31.173 49.742 36.178 53.285 36.178 53.489 36.178 53.688 36.163 53.868 36.136 54.406 36.136 55.802 36.897 56.725 37.401 58.396 38.313 60.124 39.255 61.852 39.292 62.007 39.295 62.159 39.297 62.305 39.297 62.981 39.297 63.576 39.257 64.101 39.184 64.178 39.915 64.515 40.528 64.886 41.018 64.418 41.43 63.997 41.986 63.872 42.758 63.776 43.347 63.833 44.248 64.646 45.19 65.001 45.602 65.34 45.899 65.622 46.117 65.598 47.034 65.962 47.759 66.223 48.277 66.368 48.563 66.481 48.789 66.518 48.992 66.645 49.699 66.732 50.538 66.76 51.223A2.27 2.27 0 0 0 65.441 50.825C63.846 50.825 60.74 52.471 60.651 55.054 60.615 56.124 60.043 57.525 59.146 58.016 58.809 58.202 58.59 58.226 58.23 58.267 57.461 58.355 56.031 58.518 55.109 60.492 54.618 61.546 53.578 62.623 52.14 64.114 51.828 64.438 51.497 64.781 51.149 65.146 50.323 66.015 49.645 66.519 49.1 66.924 48.349 67.481 47.433 68.16 47.198 69.38L47.037 69.393C44.649 69.584 43.796 70.816 43.438 71.686 42.129 71.964 40.19 72.89 40.333 76.493 40.381 77.696 40.577 78.865 40.75 79.895 40.903 80.81 41.135 82.193 40.997 82.58 40.895 82.855 40.68 83.247 40.452 83.662 39.688 85.053 38.644 86.952 39.192 89.174 39.054 89.349 38.703 89.64 38.482 89.822 37.743 90.434 36.824 91.196 36.544 92.46 36.308 93.522 34.378 96.542 33.406 96.988 33.075 96.868 32.202 95.874 31.427 92.306L31.273 91.592C30.534 88.173 29.951 85.473 28.29 82.895 27.791 82.121 27.659 81.17 27.49 79.968 27.27 78.391 26.995 76.428 25.709 74.377 24.266 72.075 23.994 69.13 23.731 66.281 23.68 65.725 23.629 65.176 23.571 64.635 23.474 63.736 23.378 62.975 23.293 62.312 23.047 60.383 22.956 59.56 23.164 58.551 23.394 57.43 23.571 55.488 23.594 53.825 23.631 51.105 23.335 49.301 21.747 48.709A2.2 2.2 0 0 0 20.972 48.568H20.971C19.366 48.568 18.767 50.034 18.371 51.004 17.819 52.356 17.414 53.088 16.858 53.088 16.814 53.088 16.769 53.085 16.722 53.08 15.317 52.927 14.175 51.617 13.616 50.666L13.675 50.649C14.782 50.347 16.036 50.004 16.518 48.772A2.28 2.28 0 0 0 16.311 46.714C15.645 45.647 14.448 45.449 13.291 45.258 12.888 45.191 12.204 45.078 11.827 44.938 11.848 44.854 11.865 44.811 11.864 44.808 11.865 44.807 12.014 44.713 12.519 44.713 13.132 44.713 13.892 44.851 14.556 44.981 15.034 45.074 15.487 45.122 15.903 45.122 17.795 45.122 18.66 44.164 19.007 43.594 19.357 43.019 19.812 41.799 18.93 40.098 18.765 39.78 18.581 38.956 18.433 38.294 18.06 36.626 17.645 34.77 16.268 33.97 16.487 33.735 16.684 33.506 16.864 33.296L17.02 33.115A3.25 3.25 0 0 0 18.958 33.753C21.244 33.753 22.998 31.4 23.841 29.997 24.77 28.447 28.22 24.032 28.898 23.442 29.968 22.573 30.136 21.239 30.258 20.265L30.262 20.232C31.356 19.766 32.43 19.024 32.691 17.868 32.877 17.042 32.604 16.198 31.959 15.605 31.851 15.506 31.729 15.385 31.592 15.251 30.857 14.53 29.747 13.441 28.162 12.648 27.878 12.445 27.748 11.407 27.955 11.049 31.038 8.356 29.528 5.93 28.99 5.25 28.468 4.588 27.737 4.131 27.039 3.77 27.66 3.367 28.586 3 29.511 3M84.408 28.713A5.2 5.2 0 0 1 85.785 28.88C85.893 29.874 86.477 30.64 87.529 31.168 87.193 31.484 86.704 31.801 85.826 32.369 83.866 33.637 83.04 36.857 82.311 39.699 82.086 40.577 81.873 41.406 81.696 41.862L81.481 42.424C81.403 42.63 81.315 42.861 81.236 43.054A4 4 0 0 0 80.997 43.047C80.251 43.047 79.368 43.278 78.843 44.21 79.15 42.979 78.99 41.783 78.391 40.938A2.75 2.75 0 0 0 76.113 39.77C76.008 39.77 75.899 39.775 75.786 39.788 75.536 39.814 74.861 39.853 74.027 39.853 73.347 39.853 72.826 39.828 72.442 39.793 72.384 39.322 72.242 38.747 71.884 38.215 72.169 38.176 72.476 38.13 72.807 38.075A28 28 0 0 1 74.706 37.845C76.191 37.702 77.475 37.578 78.143 36.341 78.361 35.938 78.641 35.12 78.145 34.087 79.618 33.34 80.987 31.772 82.323 30.241 82.773 29.725 83.371 29.04 83.677 28.765A4.5 4.5 0 0 1 84.408 28.713M29.511 1C27.29 1 24.472 2.473 24.284 4.383 24.23 4.926 26.607 5.464 27.418 6.49S27.796 8.543 26.607 9.57C25.418 10.596 25.634 13.623 27.255 14.433S29.956 16.487 30.606 17.081C31.253 17.675 29.471 18.432 28.769 18.648 28.066 18.864 28.498 21.188 27.633 21.89 26.769 22.593 23.094 27.348 22.122 28.969 21.372 30.217 20.112 31.754 18.954 31.754 18.608 31.754 18.271 31.616 17.96 31.293 17.592 30.91 17.272 30.752 16.974 30.752 16.179 30.752 15.539 31.877 14.557 32.86 13.206 34.211 13.8 35.345 15.043 35.616S16.394 39.56 17.15 41.019C17.784 42.241 17.356 43.122 15.899 43.122 15.616 43.122 15.295 43.089 14.935 43.018 14.136 42.862 13.289 42.713 12.516 42.713 11.145 42.713 10.01 43.181 9.802 44.909 9.479 47.611 14.072 46.908 14.612 47.773S11.802 48.691 11.316 49.556C10.83 50.419 13.045 54.689 16.503 55.068 16.625 55.082 16.743 55.088 16.857 55.088 19.88 55.088 20.192 50.568 20.971 50.568 20.996 50.568 21.022 50.573 21.048 50.583 21.918 50.907 21.583 56.311 21.205 58.147 20.827 59.985 21.205 61.335 21.583 64.848S22.016 72.25 24.015 75.439C26.015 78.628 25.041 81.544 26.609 83.977 28.175 86.409 28.663 89.001 29.473 92.73 30.284 96.46 31.472 99 33.471 99S38.172 94.352 38.496 92.894 41.684 90.787 41.144 88.733C40.603 86.679 42.332 84.735 42.873 83.275 43.413 81.817 42.44 79.115 42.332 76.413 42.225 73.711 43.468 73.657 44.549 73.549 45.629 73.442 44.494 71.604 47.196 71.388S49.087 70.956 49.141 69.929C49.194 68.903 50.493 68.741 52.599 66.525S56.164 62.96 56.921 61.339 58.435 60.689 60.109 59.77C61.785 58.852 62.596 56.691 62.65 55.124 62.695 53.827 64.739 52.826 65.441 52.826 65.587 52.826 65.675 52.87 65.675 52.963 65.675 53.328 66.657 53.692 67.48 53.692 67.877 53.692 68.238 53.607 68.431 53.396 69.025 52.748 68.701 49.83 68.487 48.64 68.269 47.452 67.406 46.804 67.675 45.831 67.945 44.858 67.187 45.074 66.161 43.885 65.135 42.697 66.809 42.21 67.566 41.615S65.837 39.994 66.106 38.643C66.206 38.144 66.431 37.97 66.76 37.97 67.322 37.97 68.185 38.479 69.241 38.751 70.915 39.184 70.322 40.48 70.537 41.237 70.677 41.726 72.485 41.854 74.025 41.854 74.868 41.854 75.63 41.816 75.994 41.777 76.034 41.773 76.073 41.771 76.111 41.771 77.032 41.771 77.169 43.009 76.805 44.047 76.426 45.128 74.751 45.56 74.482 47.136 74.322 48.064 75.023 48.588 75.628 48.588 76.051 48.588 76.427 48.331 76.427 47.775 76.427 46.993 76.771 46.555 77.072 46.555 77.29 46.555 77.485 46.787 77.509 47.287 77.56 48.387 77.981 51.675 78.99 51.675A0.6 0.6 0 0 0 79.239 51.612C80.427 51.018 79.077 49.829 79.939 47.667 80.716 45.726 80.142 45.049 80.997 45.049 81.094 45.049 81.208 45.057 81.346 45.074 81.47 45.089 81.583 45.096 81.688 45.096 82.721 45.096 82.875 44.354 83.561 42.588 84.319 40.643 85.075 35.239 86.913 34.05 88.75 32.862 89.344 32.483 90.101 30.862 90.857 29.241 87.615 30.106 87.776 28.377 87.891 27.155 85.956 26.716 84.41 26.716 83.767 26.716 83.192 26.792 82.859 26.919 81.725 27.351 78.429 32.539 76.421 32.539S75.781 33.89 76.323 34.916C76.863 35.942 75.133 35.672 72.486 36.104 71.494 36.266 70.585 36.382 69.837 36.382 68.587 36.382 67.784 36.057 67.784 35.078 67.784 33.511 67.407 31.998 66.326 31.998S65.731 35.186 65.731 36.05C65.731 36.867 64.574 37.298 62.306 37.298 62.173 37.298 62.035 37.297 61.895 37.294 59.468 37.242 56.01 34.138 53.869 34.138 53.767 34.138 53.669 34.145 53.573 34.159 53.483 34.173 53.387 34.18 53.286 34.18 50.995 34.18 45.767 30.805 44.009 29.513 42.172 28.162 45.522 26.325 45.682 24.812 45.842 23.298 39.578 22.759 40.01 20.543 40.414 18.473 38.79 16.404 39.06 16.404 39.079 16.404 39.108 16.414 39.147 16.436 39.511 16.635 40.364 16.997 41.119 16.997 41.594 16.997 42.03 16.854 42.281 16.436 42.928 15.355 40.389 13.248 42.173 11.627 43.955 10.006 44.929 6.061 43.091 5.521A2.7 2.7 0 0 0 42.339 5.417C40.714 5.417 39.019 6.718 37.85 6.764H37.829C36.459 6.764 32.651 1.574 30.393 1.091A4 4 0 0 0 29.511 1" data-fill-palette-color="quaternary"></path></svg></g></svg></g><g></g></svg></g></svg></g></svg></g></svg></g><defs></defs></svg><rect width="342.8515585177538" height="342.8515585177538" fill="none" stroke="none" visibility="hidden"></rect></g></svg></g></svg>