<svg fill="#ffffff" height="200px" width="200px" version="1.1" id="Layer_1" xmlns="http://www.w3.org/2000/svg" xmlns:xlink="http://www.w3.org/1999/xlink" viewBox="0 0 512 512" xml:space="preserve" stroke="#ffffff"><g id="SVGRepo_bgCarrier" stroke-width="0"></g><g id="SVGRepo_tracerCarrier" stroke-linecap="round" stroke-linejoin="round"></g><g id="SVGRepo_iconCarrier"> <g> <g> <g> <path d="M508.306,396.606c-9.224-6.125-19.974-9.363-31.091-9.363c-23.028,0-43.227,13.883-51.855,34.353 c-6.855-3.816-14.605-5.846-22.651-5.846c-21.604,0-40.081,14.9-45.24,35.183c-16.414,0.489-29.617,13.994-29.617,30.526 c0,16.839,13.7,30.539,30.539,30.539h90.348c4.464,0,8.082-3.618,8.082-8.082c0-4.464-3.617-8.082-8.082-8.082h-90.348 c-7.926,0-14.376-6.448-14.376-14.376c0-7.926,6.448-14.377,14.376-14.377c1.201,0,2.455,0.172,3.726,0.514 c2.334,0.621,4.825,0.172,6.792-1.234c1.965-1.406,3.199-3.616,3.362-6.028c1.08-15.938,14.45-28.423,30.44-28.423 c8.057,0,15.66,3.115,21.407,8.771c2.134,2.102,5.257,2.85,8.114,1.944c2.855-0.907,4.975-3.319,5.507-6.267 c3.445-19.095,20.048-32.955,39.477-32.955c6.512,0,12.844,1.556,18.538,4.53v87.899h-23.308v0.001 c-4.464,0-8.082,3.617-8.082,8.082c0,4.463,3.617,8.082,8.082,8.082h31.391c4.464,0,8.082-3.618,8.082-8.082v-100.58 C511.918,400.631,510.563,398.104,508.306,396.606z"></path> <path d="M350.748,400.336c0-18.422-14.988-33.408-33.409-33.408c-0.487,0-0.972,0.011-1.457,0.031 c-1.996-9.177-6.62-17.587-13.469-24.298c-9.129-8.944-21.196-13.868-33.981-13.868c-19.383,0-36.442,11.397-44.18,28.348 c-5.635-2.88-11.906-4.405-18.399-4.405c-13.487,0-25.712,6.598-33.146,17.202c-12.59-10.161-28.572-16.156-45.78-16.156 c-19.175,0-37.278,7.389-50.971,20.805c-11.301,11.073-18.565,25.232-20.983,40.609c-2.078-0.271-4.174-0.406-6.285-0.406 c-26.801,0-48.605,21.804-48.605,48.606c0,26.8,21.803,48.603,48.605,48.603h178.357c33.057,0,59.952-26.896,59.952-59.956 c0-10.906-2.942-21.132-8.051-29.953c-0.091-0.182-0.18-0.364-0.286-0.542c-2.092-3.531-4.526-6.799-7.241-9.778 c-0.019-0.022-0.039-0.042-0.058-0.064c-0.552-0.602-1.113-1.191-1.686-1.769c-0.145-0.147-0.29-0.294-0.436-0.441 c-0.545-0.538-1.097-1.067-1.661-1.584c-0.333-0.305-0.673-0.6-1.012-0.898c-0.211-0.185-0.424-0.371-0.637-0.553 c-8.523-7.283-19.101-12.217-30.733-13.807c-0.333-0.046-0.666-0.086-1-0.126c-0.498-0.06-0.996-0.12-1.498-0.167 c-0.724-0.071-1.451-0.123-2.18-0.167c-0.269-0.015-0.539-0.027-0.809-0.04c-0.885-0.04-1.773-0.068-2.664-0.068 c-11.416,0-22.368,3.184-31.823,9.128c-2.63-7.097-6.316-13.631-10.852-19.438c4.17-7.847,12.348-12.88,21.484-12.88 c6.421,0,12.486,2.485,17.075,6.997c2.135,2.099,5.255,2.847,8.113,1.938c2.854-0.907,4.973-3.319,5.505-6.266 c2.782-15.42,16.192-26.611,31.886-26.611c17.472,0,32.004,14.211,32.393,31.677c0.058,2.591,1.356,4.999,3.488,6.472 c2.134,1.473,4.844,1.831,7.289,0.967c1.837-0.651,3.767-0.981,5.737-0.981c9.509,0,17.246,7.737,17.246,17.245 c0,9.512-7.737,17.249-17.246,17.249H297.5c-4.463,0-8.082,3.618-8.082,8.082c0,4.464,3.618,8.082,8.082,8.082h19.839 C335.76,433.748,350.748,418.76,350.748,400.336z M188.214,422.782c0.713,0.226,1.445,0.349,2.173,0.375 c2.183,0.073,4.338-0.74,5.942-2.316c8.251-8.116,19.16-12.587,30.718-12.587c0.893,0,1.782,0.033,2.669,0.088 c0.194,0.013,0.385,0.03,0.576,0.044c0.766,0.059,1.529,0.131,2.288,0.23c0.105,0.013,0.209,0.025,0.314,0.04 c8.415,1.149,16.308,4.741,22.698,10.222c0.025,0.023,0.052,0.044,0.076,0.066c0.654,0.565,1.292,1.152,1.914,1.755 c0.06,0.058,0.121,0.114,0.181,0.172c0.617,0.607,1.217,1.234,1.799,1.877c0.158,0.176,0.31,0.359,0.467,0.538 c0.385,0.44,0.762,0.888,1.129,1.344c0.23,0.284,0.456,0.57,0.677,0.86c0.296,0.387,0.583,0.783,0.867,1.181 c0.214,0.299,0.433,0.594,0.64,0.899c0.422,0.623,0.826,1.26,1.217,1.907c3.982,6.596,6.278,14.318,6.278,22.568 c0,24.147-19.643,43.793-43.788,43.793H48.687c-17.888,0-32.442-14.552-32.442-32.44c0-17.889,14.553-32.443,32.442-32.443 c3.692,0,7.324,0.623,10.798,1.851c2.444,0.862,5.152,0.502,7.286-0.969c2.132-1.473,3.43-3.88,3.487-6.471 c0.679-30.56,26.1-55.422,56.668-55.422c16.34,0,31.264,6.939,41.695,18.247c0.125,0.161,0.241,0.328,0.379,0.48 c5.623,6.227,9.757,13.562,12.163,21.484c0.092,0.302,0.185,0.602,0.271,0.906c0.1,0.348,0.194,0.699,0.287,1.049 c0.119,0.45,0.233,0.903,0.341,1.358c0.064,0.265,0.128,0.53,0.188,0.796c0.165,0.744,0.321,1.493,0.458,2.249 C183.238,419.462,185.359,421.876,188.214,422.782z"></path> <path d="M321.793,221.273h59.758c4.464,0,8.082-3.617,8.082-8.082s-3.617-8.082-8.082-8.082h-59.758 c-7.171,0-13.005-5.832-13.005-13.002c0-7.169,5.834-13.002,13.005-13.002h43.918c2.902,0,5.582-1.556,7.019-4.076 c1.439-2.52,1.416-5.618-0.061-8.116c-1.203-2.036-1.812-4.251-1.812-6.586c0-7.169,5.833-13.002,13.002-13.002h98.895 c7.168,0,13,5.833,13,13.002s-5.832,13.002-13,13.002h-43.924c-2.902,0-5.581,1.555-7.019,4.075s-1.416,5.618,0.061,8.117 c1.203,2.035,1.812,4.251,1.812,6.586c0,7.169-5.832,13.002-13,13.002h-12.412c-4.464,0-8.082,3.617-8.082,8.082 s3.617,8.082,8.082,8.082h12.412c16.081,0,29.163-13.084,29.163-29.165c0-0.876-0.04-1.748-0.118-2.616h33.025 c16.081,0,29.163-13.084,29.163-29.165c0-16.081-13.083-29.165-29.163-29.165h-98.895c-16.082,0-29.165,13.084-29.165,29.165 c0,0.874,0.04,1.748,0.118,2.616h-33.019c-16.081,0-29.167,13.083-29.167,29.165 C292.625,208.189,305.711,221.273,321.793,221.273z"></path> <path d="M503.836,319.85H348.528c-4.464,0-8.082,3.617-8.082,8.082s3.617,8.082,8.082,8.082h155.308 c4.464,0,8.082-3.617,8.082-8.082C511.918,323.469,508.301,319.85,503.836,319.85z"></path> <path d="M503.836,266.072h-68.964c-4.464,0-8.082,3.617-8.082,8.082s3.617,8.082,8.082,8.082h68.964 c4.464,0,8.082-3.617,8.082-8.082S508.301,266.072,503.836,266.072z"></path> <path d="M8.164,322.318h53.035c4.464,0,8.082-3.617,8.082-8.082s-3.617-8.082-8.082-8.082H8.164 c-4.463,0-8.082,3.617-8.082,8.082S3.7,322.318,8.164,322.318z"></path> <path d="M87.546,322.318h24.868c4.464,0,8.082-3.617,8.082-8.082s-3.617-8.082-8.082-8.082H87.546 c-4.463,0-8.082,3.617-8.082,8.082S83.081,322.318,87.546,322.318z"></path> <path d="M382.792,266.072c-4.463,0-8.082,3.617-8.082,8.082s3.618,8.082,8.082,8.082h24.868c4.463,0,8.082-3.617,8.082-8.082 s-3.618-8.082-8.082-8.082H382.792z"></path> <path d="M102.695,158.15l9.378,21.319c1.29,2.934,4.193,4.827,7.397,4.827h4.192l30.198,67.635 c-0.446,1.721-0.685,3.487-0.685,5.274v24.784c0,11.586,9.426,21.012,21.012,21.012h24.784c11.586,0,21.012-9.426,21.012-21.012 v-24.784c0-1.786-0.239-3.553-0.685-5.274l30.198-67.635h4.193v0.001c3.206,0,6.108-1.894,7.397-4.827l9.378-21.318 c0.724-0.564,1.366-1.241,1.872-2.039c10.33-16.254,15.79-35.066,15.79-54.402c0-54.669-43.429-99.38-97.596-101.462 C189.225,0.087,187.91,0,186.578,0c-1.331,0-2.649,0.087-3.954,0.248c-54.166,2.087-97.59,46.795-97.59,101.462 c0,19.334,5.46,38.146,15.79,54.401C101.331,156.907,101.97,157.587,102.695,158.15z M141.365,184.298h18.385l10.424,61.009 h-1.569L141.365,184.298z M203.821,281.988c0,2.673-2.176,4.849-4.849,4.849h-24.784c-2.673,0-4.849-2.176-4.849-4.849V261.47 h34.482V281.988z M176.147,184.298h20.866l-10.424,61.009h-0.017L176.147,184.298z M204.556,245.306h-1.57l10.424-61.009h18.387 L204.556,245.306z M271.964,101.711c0,14.794-3.798,29.219-11.021,41.986H237.23c3.181-13.132,4.849-27.497,4.849-42.149 c0-31.084-7.265-58.49-18.926-76.974C251.984,38.298,271.964,67.711,271.964,101.711z M194.662,18.222 c6.6,3.308,12.977,10.515,18.242,20.892c8.392,16.541,13.014,38.714,13.014,62.432c-0.001,14.773-1.832,29.161-5.321,41.986 h-25.934V18.222z M252.053,159.859l-3.64,8.276h-3.992c-0.001,0-0.001,0-0.003,0H128.742h-0.002h-3.996l-3.64-8.276H252.053z M178.497,18.222v125.309h-25.936c-3.488-12.823-5.32-27.21-5.32-41.986c0-23.719,4.622-45.892,13.014-62.433 C165.521,28.736,171.897,21.528,178.497,18.222z M150.005,24.575c-11.66,18.482-18.925,45.889-18.925,76.973 c0,14.655,1.667,29.019,4.848,42.149h-23.709c-7.222-12.769-11.021-27.193-11.021-41.986 C101.197,67.712,121.175,38.3,150.005,24.575z"></path> </g> </g> </g> </g></svg>