<svg viewBox="0 -21 131.38 131.38" xmlns="http://www.w3.org/2000/svg" fill="#ffffff"><g id="SVGRepo_bgCarrier" stroke-width="0"></g><g id="SVGRepo_tracerCarrier" stroke-linecap="round" stroke-linejoin="round"></g><g id="SVGRepo_iconCarrier"> <g transform="translate(-198.143 -391.059)"> <path d="M315.3,392.559H212.37a4.38,4.38,0,0,0-4.38,4.38v68.333H319.676V396.939A4.38,4.38,0,0,0,315.3,392.559Z" fill="none" stroke="#ffffff" stroke-linecap="round" stroke-linejoin="round" stroke-width="3"></path> <path d="M314.355,478.941H213.312a13.669,13.669,0,0,1-13.669-13.669h128.38A13.668,13.668,0,0,1,314.355,478.941Z" fill="none" stroke="#ffffff" stroke-linecap="round" stroke-linejoin="round" stroke-width="3"></path> <path d="M248.387,465.272l.856,5a1.007,1.007,0,0,0,.992.836h27.2a1,1,0,0,0,.991-.836l.857-5Z" fill="none" stroke="#ffffff" stroke-linecap="round" stroke-linejoin="round" stroke-width="3"></path> <path d="M280.889,443.431V423.737l-17.056-9.847-17.055,9.847v19.694l17.055,9.847Z" fill="none" stroke="#ffffff" stroke-linecap="round" stroke-linejoin="round" stroke-width="3"></path> <path d="M246.778,423.737l17.055,9.847,17.056-9.847" fill="none" stroke="#ffffff" stroke-linecap="round" stroke-linejoin="round" stroke-width="3"></path> <line y1="19.694" transform="translate(263.833 433.584)" stroke-width="3" stroke="#ffffff" stroke-linecap="round" stroke-linejoin="round" fill="none"></line> <path d="M267.726,407.348l-3.893-2.795-3.893,2.795" fill="none" stroke="#ffffff" stroke-linecap="round" stroke-linejoin="round" stroke-width="3"></path> <line y1="9.337" transform="translate(263.833 404.553)" stroke-width="3" stroke="#ffffff" stroke-linecap="round" stroke-linejoin="round" fill="none"></line> <path d="M239.175,443.039l-.657,4.747,4.288,2.14" fill="none" stroke="#ffffff" stroke-linecap="round" stroke-linejoin="round" stroke-width="3"></path> <line x1="8.259" y2="4.354" transform="translate(238.518 443.431)" stroke-width="3" stroke="#ffffff" stroke-linecap="round" stroke-linejoin="round" fill="none"></line> <path d="M288.491,443.039l.657,4.747-4.288,2.14" fill="none" stroke="#ffffff" stroke-linecap="round" stroke-linejoin="round" stroke-width="3"></path> <line x2="8.259" y2="4.354" transform="translate(280.889 443.431)" stroke-width="3" stroke="#ffffff" stroke-linecap="round" stroke-linejoin="round" fill="none"></line> </g> </g></svg>